<?xml version="1.0" standalone="no"?>
<!DOCTYPE svg PUBLIC "-//W3C//DTD SVG 20010904//EN"
 "http://www.w3.org/TR/2001/REC-SVG-20010904/DTD/svg10.dtd">
<svg version="1.0" xmlns="http://www.w3.org/2000/svg"
 width="96.000000pt" height="96.000000pt" viewBox="0 0 96.000000 96.000000"
 preserveAspectRatio="xMidYMid meet">
<metadata>
Created by potrace 1.11, written by Peter Selinger 2001-2013
</metadata>
<g transform="translate(0.000000,96.000000) scale(0.100000,-0.100000)"
fill="#000000" stroke="none">
<path d="M427 854 c-1 -2 -18 -6 -36 -9 -96 -17 -199 -102 -251 -208 -30 -62
-34 -77 -33 -155 0 -76 4 -96 31 -156 52 -112 155 -195 262 -211 3 0 10 -3 15
-6 14 -8 124 -2 165 9 92 24 190 104 234 190 57 113 52 261 -12 367 -46 77
-147 151 -232 171 -33 7 -138 13 -143 8z"/>
</g>
</svg>
