<?xml version="1.0" ?><!DOCTYPE svg  PUBLIC '-//W3C//DTD SVG 1.1//EN'  'http://www.w3.org/Graphics/SVG/1.1/DTD/svg11.dtd'><svg style="enable-background:new 0 0 512 512;" version="1.1" viewBox="0 0 512 512" xml:space="preserve" xmlns="http://www.w3.org/2000/svg" xmlns:xlink="http://www.w3.org/1999/xlink"><g id="baseball"><g><g><defs><circle cx="255.967" cy="256.274" id="SVGID_1_" r="200"/></defs><use style="overflow:visible;fill:#EEEEEE;" xlink:href="#SVGID_1_"/><clipPath id="SVGID_2_"><use style="overflow:visible;" xlink:href="#SVGID_1_"/></clipPath><g style="clip-path:url(#SVGID_2_);"><g><g><g><path d="M517.221,421.071l-5.629-35.243c0,0,0.497-0.07,1.242-0.175         c0.739-0.146,1.725-0.341,2.71-0.536c1.972-0.383,3.944-0.767,3.944-0.767l7.751,34.837c0,0-2.5,0.493-5,0.986         c-1.251,0.243-2.502,0.485-3.44,0.667C517.852,420.979,517.221,421.071,517.221,421.071z" style="fill:#BF360C;"/><path d="M523.363,401.769         c0,0-2.297,0.45-5.743,1.125c-1.715,0.382-3.751,0.621-5.922,0.944c-1.086,0.156-2.208,0.318-3.349,0.481         c-1.147,0.106-2.313,0.214-3.478,0.322c-1.166,0.107-2.331,0.215-3.478,0.321c-1.147,0.102-2.283,0.11-3.378,0.168         c-1.096,0.046-2.156,0.09-3.161,0.132c-0.502,0.02-0.991,0.04-1.464,0.06c-0.473-0.004-0.93-0.008-1.369-0.012         c-3.511-0.03-5.852-0.049-5.852-0.049" style="fill:#BF360C;stroke:#424242;stroke-width:5.6;stroke-miterlimit:10;"/></g><g><path d="M475.398,422.423l3.357-35.531c0,0,0.498,0.055,1.245,0.138         c0.749,0.061,1.75,0.103,2.75,0.165c1,0.06,2,0.119,2.75,0.163c0.75,0.045,1.25,0.069,1.25,0.069l-1.159,35.671         c0,0-0.638-0.029-1.594-0.083c-0.956-0.055-2.231-0.129-3.506-0.203c-1.274-0.08-2.55-0.143-3.505-0.22         C476.033,422.491,475.398,422.423,475.398,422.423z" style="fill:#BF360C;"/><path d="M486.17,405.262         c0,0-0.584-0.028-1.607-0.087c-1.022-0.06-2.483-0.145-4.235-0.247c-1.756-0.057-3.787-0.347-5.97-0.565         c-1.089-0.127-2.221-0.219-3.36-0.386c-1.138-0.18-2.294-0.364-3.45-0.547c-1.156-0.186-2.311-0.371-3.449-0.554         c-1.127-0.236-2.237-0.468-3.312-0.693c-1.074-0.225-2.112-0.442-3.097-0.648c-0.985-0.201-1.896-0.479-2.749-0.688         c-1.699-0.443-3.114-0.812-4.105-1.07c-0.497-0.123-0.883-0.234-1.144-0.322c-0.262-0.082-0.401-0.126-0.401-0.126" style="fill:#BF360C;stroke:#424242;stroke-width:5.6;stroke-miterlimit:10;"/></g><g><path d="M434.577,413.261l12.118-33.569c0,0,0.471,0.173,1.177,0.434         c0.354,0.13,0.766,0.281,1.207,0.443c0.449,0.14,0.928,0.288,1.407,0.437c1.915,0.6,3.829,1.2,3.829,1.2l-10.046,34.247         c0,0-2.435-0.762-4.87-1.523c-0.608-0.191-1.217-0.383-1.787-0.563c-0.562-0.204-1.087-0.394-1.536-0.557         C435.176,413.48,434.577,413.261,434.577,413.261z" style="fill:#BF360C;"/><path d="M449.291,399.329         c0,0-2.234-0.699-5.585-1.748c-1.662-0.564-3.575-1.299-5.638-2.046c-0.515-0.189-1.039-0.382-1.568-0.577         c-0.52-0.22-1.046-0.442-1.577-0.666c-1.062-0.448-2.14-0.904-3.218-1.359c-2.178-0.862-4.246-1.969-6.237-2.891         c-1.998-0.911-3.777-1.929-5.326-2.756c-1.537-0.849-2.852-1.495-3.713-2.051c-0.877-0.529-1.378-0.831-1.378-0.831" style="fill:#BF360C;stroke:#424242;stroke-width:5.6;stroke-miterlimit:10;"/></g><g><path d="M397.343,394.287l20.032-29.537c0,0,1.669,1.118,3.337,2.235         c1.721,1.035,3.442,2.071,3.442,2.071l-18.207,30.696c0,0-2.182-1.318-4.364-2.636         C399.463,395.701,397.343,394.287,397.343,394.287z" style="fill:#BF360C;"/><path d="M415.051,384.404         c0,0-0.501-0.302-1.378-0.831c-0.863-0.55-2.16-1.237-3.603-2.238c-1.458-0.978-3.16-2.118-4.983-3.339         c-1.763-1.307-3.644-2.701-5.524-4.094c-7.446-5.7-14.016-12.399-14.016-12.399" style="fill:#BF360C;stroke:#424242;stroke-width:5.6;stroke-miterlimit:10;"/></g><g><path d="M365.927,366.713l26.717-23.663c0,0,1.354,1.479,2.709,2.959         c0.661,0.755,1.371,1.463,1.913,1.986c0.535,0.529,0.892,0.882,0.892,0.882l-25.223,25.25c0,0-0.452-0.449-1.131-1.124         c-0.685-0.668-1.584-1.572-2.432-2.526C367.65,368.596,365.927,366.713,365.927,366.713z" style="fill:#BF360C;"/><path d="M385.547,361.502         c0,0-0.416-0.412-1.143-1.133c-0.746-0.703-1.736-1.78-2.915-3.081c-2.416-2.549-5.447-6.121-8.337-9.803         c-1.39-1.882-2.846-3.719-4.095-5.522c-1.23-1.817-2.378-3.514-3.362-4.967c-0.946-1.479-1.68-2.745-2.22-3.615         c-0.532-0.875-0.835-1.375-0.835-1.375" style="fill:#BF360C;stroke:#424242;stroke-width:5.6;stroke-miterlimit:10;"/></g><g><path d="M342.326,332.15l31.787-16.228c0,0,0.956,1.76,1.912,3.521         c0.485,0.876,0.932,1.774,1.325,2.415c0.392,0.642,0.652,1.069,0.652,1.069l-30.726,18.157c0,0-0.331-0.546-0.826-1.366         c-0.497-0.819-1.079-1.957-1.697-3.074C343.54,334.397,342.326,332.15,342.326,332.15z" style="fill:#BF360C;"/><path d="M362.64,332.005         c0,0-0.304-0.5-0.835-1.375c-0.51-0.888-1.19-2.184-2.031-3.725c-0.418-0.771-0.871-1.608-1.35-2.493         c-0.481-0.883-0.905-1.857-1.389-2.841c-0.926-1.989-2.018-4.064-2.871-6.246c-0.452-1.08-0.903-2.16-1.348-3.222         c-0.223-0.532-0.443-1.059-0.661-1.58c-0.193-0.531-0.385-1.055-0.573-1.57c-0.743-2.065-1.437-3.992-2.031-5.644         c-1.021-3.359-1.702-5.599-1.702-5.599" style="fill:#BF360C;stroke:#424242;stroke-width:5.6;stroke-miterlimit:10;"/></g><g><path d="M328.149,292.793l34.825-7.808c0,0,0.488,1.949,0.976,3.897         c0.248,0.973,0.469,1.954,0.676,2.678c0.221,0.72,0.368,1.199,0.368,1.199l-34.289,9.902c0,0-0.184-0.611-0.46-1.526         c-0.261-0.919-0.552-2.16-0.867-3.395C328.764,295.267,328.149,292.793,328.149,292.793z" style="fill:#BF360C;"/><path d="M347.85,297.71         c0,0-0.17-0.56-0.468-1.54c-0.249-0.993-0.604-2.413-1.031-4.115c-0.427-1.703-0.947-3.685-1.328-5.848         c-0.211-1.077-0.429-2.189-0.651-3.32c-0.111-0.565-0.222-1.135-0.334-1.707l-0.252-1.735         c-0.311-2.319-0.716-4.628-0.928-6.812c-0.202-2.185-0.391-4.225-0.552-5.973c-0.125-1.75-0.148-3.215-0.203-4.237         c-0.042-1.023-0.067-1.608-0.067-1.608" style="fill:#BF360C;stroke:#424242;stroke-width:5.6;stroke-miterlimit:10;"/></g><g><path d="M324.17,251.153l35.672,1.1c0,0-0.015,2.003-0.03,4.007c-0.064,2.004,0.059,4.006,0.059,4.006         l-35.673,1.1c0,0-0.141-2.55-0.076-5.105C324.147,253.707,324.17,251.153,324.17,251.153z" style="fill:#BF360C;"/><path d="M342.036,260.816         c0,0-0.024-0.584-0.067-1.608c-0.042-1.023,0.007-2.486,0.011-4.242c0.019-1.755-0.004-3.805,0.167-5.994         c0.064-1.096,0.13-2.228,0.197-3.377c0.036-0.575,0.071-1.154,0.107-1.736l0.188-1.743c0.126-1.164,0.252-2.327,0.376-3.472         c0.116-1.146,0.242-2.273,0.435-3.354c0.346-2.167,0.67-4.189,0.947-5.923c0.719-3.437,1.198-5.728,1.198-5.728" style="fill:#BF360C;stroke:#424242;stroke-width:5.6;stroke-miterlimit:10;"/></g><g><path d="M330.736,209.819L365,219.808c0,0-0.168,0.473-0.343,1.205         c-0.189,0.728-0.441,1.698-0.692,2.669c-0.254,0.97-0.509,1.939-0.7,2.667c-0.157,0.735-0.262,1.225-0.262,1.225         l-34.811-7.871c0,0,0.136-0.624,0.339-1.559c0.24-0.926,0.56-2.162,0.88-3.397c0.323-1.234,0.646-2.469,0.888-3.395         C330.53,210.423,330.736,209.819,330.736,209.819z" style="fill:#BF360C;"/><path d="M345.597,223.638         c0,0,0.102-0.577,0.348-1.571c0.258-0.991,0.627-2.407,1.07-4.105c0.226-0.848,0.451-1.773,0.726-2.74         c0.301-0.959,0.618-1.972,0.945-3.019c0.328-1.047,0.667-2.129,1.011-3.229c0.358-1.095,0.789-2.184,1.184-3.286         c0.403-1.099,0.806-2.198,1.203-3.279c0.393-1.083,0.874-2.112,1.288-3.127c0.872-2.014,1.603-3.93,2.402-5.495         c0.76-1.583,1.393-2.902,1.835-3.825c0.439-0.925,0.708-1.445,0.708-1.445" style="fill:#BF360C;stroke:#424242;stroke-width:5.6;stroke-miterlimit:10;"/></g><g><path d="M347.375,171.471l30.727,18.155c0,0-1.075,1.699-1.989,3.488         c-0.956,1.766-1.911,3.532-1.911,3.532l-31.771-16.26c0,0,1.209-2.244,2.419-4.488         C346.025,173.634,347.375,171.471,347.375,171.471z" style="fill:#BF360C;"/><path d="M358.316,188.517         c0,0,1.112-2.06,2.78-5.149c1.748-3.043,4.125-7.082,6.793-10.93c1.264-1.972,2.697-3.825,3.999-5.592         c0.66-0.876,1.27-1.746,1.899-2.53c0.637-0.778,1.239-1.515,1.795-2.194c1.116-1.354,2.026-2.501,2.697-3.274         c0.686-0.761,1.077-1.195,1.077-1.195" style="fill:#BF360C;stroke:#424242;stroke-width:5.6;stroke-miterlimit:10;"/></g><g><path d="M372.948,138.418l25.292,25.181c0,0-0.354,0.356-0.884,0.89         c-0.52,0.544-1.262,1.222-1.924,1.977c-1.343,1.492-2.686,2.984-2.686,2.984l-26.778-23.595c0,0,1.708-1.894,3.416-3.788         c0.847-0.953,1.778-1.828,2.441-2.517C372.499,138.871,372.948,138.418,372.948,138.418z" style="fill:#BF360C;"/><path d="M379.357,157.653         c0,0,0.392-0.435,1.078-1.196c0.695-0.752,1.644-1.868,2.861-3.132c1.236-1.247,2.679-2.701,4.224-4.259         c1.58-1.522,3.334-3.073,5.053-4.663c1.743-1.561,3.586-3.008,5.262-4.425c0.831-0.717,1.687-1.345,2.492-1.948         c0.804-0.604,1.565-1.175,2.267-1.702c0.702-0.527,1.345-1.01,1.916-1.438c0.589-0.401,1.104-0.751,1.527-1.04         c0.848-0.574,1.333-0.902,1.333-0.902" style="fill:#BF360C;stroke:#424242;stroke-width:5.6;stroke-miterlimit:10;"/></g><g><path d="M405.949,112.706l18.209,30.695c0,0-1.713,1.039-3.427,2.078         c-0.861,0.513-1.665,1.114-2.294,1.524c-0.622,0.421-1.037,0.703-1.037,0.703l-20.065-29.515c0,0,0.529-0.358,1.322-0.895         c0.801-0.524,1.835-1.276,2.928-1.936C403.767,114.033,405.949,112.706,405.949,112.706z" style="fill:#BF360C;"/><path d="M407.367,132.948         c0,0,7.708-5.349,16.089-9.555c8.332-4.306,17.201-7.368,17.201-7.368" style="fill:#BF360C;stroke:#424242;stroke-width:5.6;stroke-miterlimit:10;"/></g><g><path d="M444.343,96.071l9.958,34.272c0,0-1.92,0.583-3.84,1.166         c-0.969,0.265-1.899,0.644-2.609,0.891c-0.707,0.256-1.179,0.426-1.179,0.426l-12.032-33.6c0,0,0.6-0.216,1.501-0.539         c0.904-0.315,2.094-0.781,3.321-1.13C441.903,96.814,444.343,96.071,444.343,96.071z" style="fill:#BF360C;"/><path d="M440.657,116.025         c0,0,0.55-0.198,1.514-0.545c0.481-0.173,1.066-0.384,1.738-0.626c0.682-0.208,1.452-0.442,2.292-0.698         c1.685-0.494,3.629-1.145,5.75-1.706c2.129-0.531,4.401-1.097,6.672-1.663c2.297-0.45,4.594-0.9,6.748-1.323         c2.159-0.391,4.196-0.625,5.931-0.893c0.869-0.125,1.666-0.239,2.372-0.34c0.71-0.065,1.329-0.123,1.839-0.17         c1.02-0.094,1.603-0.148,1.603-0.148" style="fill:#BF360C;stroke:#424242;stroke-width:5.6;stroke-miterlimit:10;"/></g><g><path d="M485.626,89.496l1.16,35.67c0,0-2.002,0.082-4.005,0.164         c-1.001,0.043-1.997,0.176-2.746,0.234c-0.749,0.069-1.248,0.116-1.248,0.116l-3.349-35.532c0,0,0.635-0.059,1.588-0.146         c0.954-0.076,2.222-0.229,3.497-0.29C483.076,89.604,485.626,89.496,485.626,89.496z" style="fill:#BF360C;"/><path d="M477.113,107.914         c0,0,9.331-0.987,18.702-0.62c9.374,0.256,18.623,1.832,18.623,1.832" style="fill:#BF360C;stroke:#424242;stroke-width:5.6;stroke-miterlimit:10;"/></g><g><path d="M527.296,93.419l-7.813,34.824c0,0-1.962-0.411-3.924-0.822         c-0.977-0.23-1.971-0.362-2.712-0.481c-0.742-0.117-1.237-0.195-1.237-0.195l5.658-35.238c0,0,0.63,0.1,1.576,0.251         c0.945,0.154,2.209,0.334,3.455,0.616C524.797,92.896,527.296,93.419,527.296,93.419z" style="fill:#BF360C;"/><path d="M514.438,109.126         c0,0,0.578,0.091,1.589,0.252c0.505,0.082,1.119,0.181,1.823,0.294c0.698,0.146,1.485,0.311,2.345,0.491         c0.859,0.18,1.79,0.375,2.774,0.581c0.985,0.205,2.026,0.41,3.083,0.707c2.118,0.572,4.401,1.102,6.642,1.777         c2.23,0.711,4.477,1.372,6.553,2.081c2.06,0.756,3.983,1.461,5.631,2.066c1.639,0.629,2.971,1.237,3.919,1.624         c0.943,0.398,1.482,0.626,1.482,0.626" style="fill:#BF360C;stroke:#424242;stroke-width:5.6;stroke-miterlimit:10;"/></g><g><path d="M566.64,107.585l-16.208,31.797c0,0-1.811-0.867-3.622-1.734         c-0.909-0.425-1.799-0.894-2.496-1.178c-0.694-0.291-1.157-0.485-1.157-0.485l14.247-32.723c0,0,0.587,0.249,1.467,0.623         c0.883,0.367,2.019,0.948,3.173,1.489C564.342,106.479,566.64,107.585,566.64,107.585z" style="fill:#BF360C;"/><path d="M550.28,119.624         c0,0,0.539,0.228,1.482,0.626c0.936,0.416,2.246,1.068,3.832,1.822c0.792,0.379,1.649,0.791,2.556,1.226         c0.902,0.443,1.823,0.972,2.792,1.486c1.928,1.048,4.011,2.119,5.992,3.369c4.048,2.354,7.914,5.003,10.787,7.018         c2.821,2.091,4.702,3.485,4.702,3.485" style="fill:#BF360C;stroke:#424242;stroke-width:5.6;stroke-miterlimit:10;"/></g><g><path d="M601.209,131.068l-23.55,26.817c0,0-0.372-0.337-0.93-0.842         c-0.569-0.493-1.359-1.113-2.133-1.752c-0.776-0.636-1.553-1.272-2.135-1.75c-0.579-0.482-0.978-0.787-0.978-0.787         l21.879-28.197c0,0,0.505,0.388,1.243,0.996c0.741,0.605,1.728,1.412,2.715,2.218c0.983,0.812,1.979,1.607,2.702,2.233         C600.734,130.642,601.209,131.068,601.209,131.068z" style="fill:#BF360C;"/><path d="M582.423,138.655         c0,0,0.463,0.356,1.253,1.009c0.792,0.648,1.925,1.575,3.284,2.686c1.388,1.078,2.862,2.504,4.505,3.958         c0.806,0.744,1.678,1.472,2.493,2.287c0.818,0.811,1.649,1.635,2.48,2.459c0.824,0.831,1.677,1.634,2.465,2.474         c0.778,0.85,1.543,1.686,2.284,2.496c0.741,0.809,1.457,1.591,2.136,2.333c0.659,0.759,1.254,1.501,1.819,2.174         c1.121,1.351,2.056,2.476,2.71,3.264c0.644,0.796,0.98,1.275,0.98,1.275" style="fill:#BF360C;stroke:#424242;stroke-width:5.6;stroke-miterlimit:10;"/></g><g><path d="M628.924,162.39l-29.481,20.114c0,0-0.28-0.415-0.701-1.038         c-0.414-0.627-0.975-1.458-1.596-2.246c-1.204-1.603-2.407-3.206-2.407-3.206l28.189-21.888c0,0,1.533,2.041,3.066,4.083         c0.782,1.009,1.502,2.063,2.034,2.86C628.566,161.861,628.924,162.39,628.924,162.39z" style="fill:#BF360C;"/><path d="M608.833,165.07         c0,0,1.406,1.872,3.514,4.68c0.986,1.452,2.136,3.147,3.369,4.962c0.633,0.897,1.225,1.864,1.816,2.853         c0.598,0.985,1.206,1.985,1.813,2.985l0.91,1.499c0.279,0.512,0.557,1.021,0.833,1.527c0.548,1.013,1.088,2.01,1.61,2.975         c1.084,1.91,1.932,3.775,2.693,5.357c0.748,1.588,1.412,2.893,1.808,3.837c0.395,0.945,0.621,1.485,0.621,1.485" style="fill:#BF360C;stroke:#424242;stroke-width:5.6;stroke-miterlimit:10;"/></g><g><path d="M647.951,199.665l-33.58,12.089c0,0-0.17-0.472-0.424-1.179         c-0.271-0.702-0.555-1.667-0.964-2.583c-0.774-1.848-1.549-3.697-1.549-3.697l32.774-14.128c0,0,0.984,2.356,1.968,4.712         c0.51,1.171,0.891,2.391,1.233,3.285C647.735,199.064,647.951,199.665,647.951,199.665z" style="fill:#BF360C;"/><path d="M627.822,197.231         c0,0,0.226,0.54,0.621,1.484c0.384,0.949,0.984,2.285,1.613,3.924c0.595,1.651,1.289,3.579,2.033,5.643         c0.734,2.068,1.345,4.331,2.047,6.563l0.507,1.678c0.141,0.566,0.281,1.129,0.421,1.688c0.278,1.118,0.553,2.218,0.818,3.283         c0.573,2.12,0.942,4.135,1.277,5.859c0.335,1.723,0.615,3.159,0.811,4.164c0.146,1.014,0.229,1.593,0.229,1.593" style="fill:#BF360C;stroke:#424242;stroke-width:5.6;stroke-miterlimit:10;"/></g><g><path d="M657.097,240.447l-35.527,3.408c0,0-0.045-0.499-0.114-1.248         c-0.066-0.749-0.144-1.749-0.312-2.739c-0.286-1.986-0.572-3.973-0.572-3.973l35.252-5.571c0,0,0.362,2.525,0.725,5.05         c0.202,1.259,0.311,2.531,0.398,3.484C657.038,239.812,657.097,240.447,657.097,240.447z" style="fill:#BF360C;"/><path d="M638.199,233.11         c0,0,0.333,2.317,0.833,5.792c0.162,1.748,0.351,3.788,0.553,5.973c0.048,0.546,0.098,1.102,0.147,1.665         c0.023,0.564,0.047,1.135,0.071,1.71c0.048,1.151,0.097,2.32,0.146,3.49c0.152,2.338,0.043,4.68,0.048,6.874         c-0.021,1.097,0.008,2.159-0.053,3.163c-0.059,1.004-0.114,1.954-0.166,2.83c-0.108,1.752-0.175,3.214-0.26,4.234         c-0.11,1.018-0.173,1.6-0.173,1.6" style="fill:#BF360C;stroke:#424242;stroke-width:5.6;stroke-miterlimit:10;"/></g><g><path d="M655.808,282.278l-35.248-5.599c0,0,0.079-0.495,0.197-1.237         c0.102-0.745,0.317-1.727,0.396-2.726c0.215-1.992,0.43-3.984,0.43-3.984l35.526,3.417c0,0-0.276,2.539-0.552,5.078         c-0.113,1.273-0.367,2.526-0.5,3.475C655.907,281.647,655.808,282.278,655.808,282.278z" style="fill:#BF360C;"/><path d="M639.346,270.44         c0,0-0.063,0.582-0.173,1.6c-0.12,1.017-0.248,2.475-0.478,4.215c-0.275,1.734-0.596,3.757-0.939,5.924         c-0.366,2.164-0.906,4.443-1.367,6.738c-1.057,4.56-2.287,9.08-3.394,12.413c-0.517,1.678-0.957,3.073-1.334,4.026         c-0.353,0.961-0.554,1.511-0.554,1.511" style="fill:#BF360C;stroke:#424242;stroke-width:5.6;stroke-miterlimit:10;"/></g><g><path d="M644.117,322.434l-32.746-14.193c0,0,0.782-1.849,1.565-3.697         c0.381-0.928,0.697-1.882,0.964-2.585c0.259-0.707,0.432-1.178,0.432-1.178l33.549,12.174c0,0-0.22,0.599-0.549,1.497         c-0.339,0.894-0.751,2.102-1.233,3.283C645.107,320.083,644.117,322.434,644.117,322.434z" style="fill:#BF360C;"/><path d="M631.106,306.868         c0,0-3.11,8.852-7.437,17.171c-1.112,2.06-2.225,4.12-3.267,6.051c-1.133,1.879-2.19,3.633-3.097,5.137         c-0.883,1.518-1.765,2.69-2.314,3.555c-0.57,0.851-0.896,1.337-0.896,1.337" style="fill:#BF360C;stroke:#424242;stroke-width:5.6;stroke-miterlimit:10;"/></g><g><path d="M622.88,358.425l-28.232-21.833c0,0,1.194-1.614,2.389-3.228         c0.6-0.806,1.209-1.604,1.61-2.243c0.418-0.626,0.697-1.044,0.697-1.044l29.504,20.081c0,0-0.355,0.529-0.888,1.322         c-0.516,0.806-1.282,1.825-2.041,2.85C624.399,356.377,622.88,358.425,622.88,358.425z" style="fill:#BF360C;"/><path d="M614.095,340.118         c0,0-0.326,0.486-0.896,1.337c-0.544,0.869-1.461,2.012-2.493,3.432c-1.052,1.405-2.231,3.082-3.655,4.754         c-1.412,1.679-2.815,3.558-4.423,5.262c-0.784,0.87-1.567,1.739-2.338,2.595c-0.386,0.428-0.769,0.853-1.146,1.272         c-0.397,0.401-0.789,0.797-1.175,1.188c-1.552,1.551-2.973,3.027-4.239,4.243c-2.59,2.371-4.316,3.951-4.316,3.951" style="fill:#BF360C;stroke:#424242;stroke-width:5.6;stroke-miterlimit:10;"/></g><g><path d="M593.367,388.046l-21.935-28.153c0,0,0.1-0.075,0.276-0.206         c0.175-0.132,0.431-0.313,0.715-0.56c0.578-0.481,1.348-1.123,2.119-1.764c0.772-0.639,1.545-1.278,2.124-1.758         c0.294-0.234,0.525-0.447,0.685-0.597c0.161-0.149,0.253-0.233,0.253-0.233l23.619,26.756c0,0-0.118,0.107-0.324,0.295         c-0.205,0.19-0.499,0.458-0.871,0.76c-0.736,0.612-1.717,1.428-2.698,2.244c-0.983,0.814-1.966,1.628-2.703,2.238         c-0.364,0.311-0.688,0.545-0.91,0.714C593.494,387.95,593.367,388.046,593.367,388.046z" style="fill:#BF360C;"/><path d="M589.414,368.152         c0,0-0.108,0.099-0.311,0.284c-0.198,0.19-0.501,0.455-0.899,0.777c-0.788,0.654-1.914,1.589-3.265,2.71         c-0.683,0.551-1.39,1.189-2.198,1.789c-0.804,0.604-1.652,1.241-2.53,1.9s-1.784,1.34-2.705,2.032         c-0.953,0.647-1.92,1.306-2.888,1.964c-0.969,0.656-1.938,1.312-2.893,1.958c-0.962,0.634-1.947,1.196-2.88,1.774         c-1.884,1.124-3.601,2.247-5.167,3.043c-1.544,0.835-2.831,1.532-3.731,2.02c-0.901,0.487-1.418,0.76-1.418,0.76" style="fill:#BF360C;stroke:#424242;stroke-width:5.6;stroke-miterlimit:10;"/></g><g><path d="M557.36,409.387l-14.183-32.75c0,0,0.463-0.192,1.157-0.48         c0.695-0.287,1.584-0.75,2.491-1.175c1.809-0.863,3.617-1.726,3.617-1.726l16.174,31.814c0,0-2.303,1.104-4.605,2.209         c-1.156,0.541-2.296,1.119-3.179,1.489C557.949,409.139,557.36,409.387,557.36,409.387z" style="fill:#BF360C;"/><path d="M558.529,389.163         c0,0-2.111,1.01-5.279,2.526c-0.396,0.189-0.808,0.387-1.235,0.591c-0.437,0.183-0.888,0.372-1.352,0.566         c-0.928,0.388-1.906,0.797-2.918,1.221c-1.017,0.412-2.049,0.886-3.131,1.28c-1.084,0.391-2.186,0.787-3.287,1.184         s-2.202,0.793-3.286,1.183c-1.103,0.335-2.187,0.665-3.237,0.984c-2.103,0.627-4.048,1.274-5.764,1.656         c-3.407,0.849-5.678,1.416-5.678,1.416" style="fill:#BF360C;stroke:#424242;stroke-width:5.6;stroke-miterlimit:10;"/></g></g></g></g><g style="clip-path:url(#SVGID_2_);"><g><g><g><path d="M24.137,423.115l-0.692-35.683c0,0,0.501,0,1.254-0.001c0.752-0.042,1.755-0.099,2.758-0.155         c2.006-0.107,4.013-0.214,4.013-0.214l2.85,35.576c0,0-2.544,0.142-5.089,0.284c-1.272,0.067-2.545,0.134-3.5,0.184         C24.775,423.111,24.137,423.115,24.137,423.115z" style="fill:#BF360C;"/><path d="M32.895,404.851         c0,0-2.337,0.127-5.843,0.319c-1.752,0.141-3.801,0.095-5.996,0.114c-1.097,0.004-2.231,0.009-3.383,0.013         c-1.15-0.054-2.32-0.109-3.489-0.163c-1.169-0.055-2.338-0.11-3.489-0.164c-1.15-0.058-2.276-0.207-3.369-0.302         c-1.092-0.106-2.147-0.209-3.148-0.307c-0.5-0.049-0.987-0.097-1.458-0.144c-0.468-0.069-0.92-0.136-1.354-0.201         c-3.473-0.516-5.789-0.859-5.789-0.859" style="fill:#BF360C;stroke:#424242;stroke-width:5.6;stroke-miterlimit:10;"/></g><g><path d="M-17.47,418.661l8.248-34.724c0,0,0.485,0.124,1.213,0.309c0.733,0.164,1.719,0.344,2.7,0.544         c0.982,0.197,1.964,0.394,2.701,0.542c0.736,0.149,1.228,0.242,1.228,0.242l-6.09,35.166c0,0-0.628-0.117-1.567-0.302         c-0.939-0.188-2.192-0.437-3.444-0.687c-1.251-0.255-2.506-0.494-3.44-0.704C-16.85,418.815-17.47,418.661-17.47,418.661z" style="fill:#BF360C;"/><path d="M-4.424,403.157         c0,0-0.575-0.108-1.579-0.309c-1.004-0.201-2.439-0.487-4.161-0.832c-1.731-0.3-3.702-0.868-5.834-1.387         c-1.062-0.277-2.169-0.525-3.275-0.847c-1.102-0.336-2.221-0.678-3.341-1.02c-1.119-0.344-2.237-0.688-3.338-1.026         c-1.084-0.39-2.151-0.773-3.184-1.145c-1.032-0.372-2.03-0.73-2.977-1.071c-0.948-0.336-1.812-0.737-2.627-1.063         c-1.621-0.674-2.972-1.235-3.917-1.628c-0.476-0.191-0.843-0.355-1.088-0.478c-0.248-0.117-0.38-0.18-0.38-0.18" style="fill:#BF360C;stroke:#424242;stroke-width:5.6;stroke-miterlimit:10;"/></g><g><path d="M-56.628,403.932l16.652-31.567c0,0,0.442,0.237,1.105,0.592         c0.332,0.177,0.719,0.384,1.134,0.606c0.425,0.2,0.879,0.414,1.333,0.627c1.813,0.859,3.625,1.719,3.625,1.719         l-14.693,32.525c0,0-2.306-1.092-4.612-2.184c-0.576-0.274-1.152-0.548-1.692-0.805c-0.528-0.28-1.021-0.541-1.444-0.764         C-56.065,404.231-56.628,403.932-56.628,403.932z" style="fill:#BF360C;"/><path d="M-40.125,392.172         c0,0-2.116-1.002-5.289-2.505c-1.568-0.789-3.36-1.782-5.3-2.807c-0.484-0.259-0.976-0.522-1.473-0.789         c-0.485-0.29-0.975-0.583-1.47-0.878c-0.989-0.591-1.994-1.191-2.999-1.792c-2.038-1.155-3.933-2.538-5.776-3.727         c-1.853-1.179-3.474-2.434-4.893-3.467c-1.404-1.054-2.617-1.875-3.393-2.546c-0.795-0.646-1.25-1.014-1.25-1.014" style="fill:#BF360C;stroke:#424242;stroke-width:5.6;stroke-miterlimit:10;"/></g><g><path d="M-90.875,379.982l23.932-26.477c0,0,1.498,1.338,2.996,2.676         c1.561,1.264,3.122,2.527,3.122,2.527l-22.284,27.878c0,0-1.978-1.608-3.956-3.215         C-88.97,381.676-90.875,379.982-90.875,379.982z" style="fill:#BF360C;"/><path d="M-71.968,372.647         c0,0-0.454-0.369-1.25-1.014c-0.779-0.665-1.967-1.525-3.258-2.716c-1.309-1.17-2.836-2.535-4.472-3.997         c-1.565-1.539-3.234-3.18-4.903-4.82c-6.585-6.677-12.163-14.221-12.163-14.221" style="fill:#BF360C;stroke:#424242;stroke-width:5.6;stroke-miterlimit:10;"/></g><g><path d="M-118.167,348.321l29.738-19.733c0,0,1.137,1.653,2.273,3.306         c0.55,0.839,1.155,1.64,1.619,2.232c0.457,0.598,0.761,0.997,0.761,0.997l-28.478,21.512c0,0-0.386-0.508-0.964-1.27         c-0.586-0.756-1.351-1.776-2.059-2.838C-116.722,350.424-118.167,348.321-118.167,348.321z" style="fill:#BF360C;"/><path d="M-98.014,345.879         c0,0-0.354-0.465-0.975-1.28c-0.641-0.8-1.473-2.003-2.46-3.455c-2.04-2.859-4.546-6.817-6.899-10.863         c-1.116-2.057-2.303-4.077-3.29-6.037c-0.967-1.97-1.869-3.809-2.642-5.385c-0.732-1.595-1.284-2.951-1.697-3.888         c-0.405-0.94-0.637-1.478-0.637-1.478" style="fill:#BF360C;stroke:#424242;stroke-width:5.6;stroke-miterlimit:10;"/></g><g><path d="M-136.751,310.821l33.729-11.667c0,0,0.703,1.876,1.406,3.752         c0.358,0.935,0.677,1.886,0.978,2.575c0.299,0.689,0.498,1.149,0.498,1.149l-32.945,13.725c0,0-0.251-0.587-0.629-1.467         c-0.378-0.879-0.798-2.087-1.254-3.279C-135.861,313.215-136.751,310.821-136.751,310.821z" style="fill:#BF360C;"/><path d="M-116.614,313.493         c0,0-0.232-0.537-0.637-1.478c-0.382-0.95-0.876-2.327-1.495-3.97c-0.307-0.822-0.64-1.713-0.991-2.656         c-0.354-0.941-0.639-1.965-0.982-3.007c-0.642-2.098-1.436-4.304-1.979-6.583c-0.297-1.132-0.595-2.264-0.888-3.378         c-0.146-0.557-0.292-1.11-0.436-1.656c-0.118-0.552-0.234-1.098-0.349-1.634c-0.45-2.148-0.87-4.153-1.229-5.871         c-0.546-3.468-0.91-5.781-0.91-5.781" style="fill:#BF360C;stroke:#424242;stroke-width:5.6;stroke-miterlimit:10;"/></g><g><path d="M-145.339,269.881l35.571-2.909c0,0,0.213,1.998,0.427,3.995c0.111,0.999,0.194,2,0.298,2.746         c0.119,0.743,0.198,1.238,0.198,1.238l-35.33,5.056c0,0-0.098-0.63-0.245-1.575c-0.131-0.947-0.248-2.216-0.389-3.482         C-145.074,272.415-145.339,269.881-145.339,269.881z" style="fill:#BF360C;"/><path d="M-126.51,277.479         c0,0-0.091-0.578-0.25-1.589c-0.108-1.019-0.264-2.473-0.451-4.219c-0.187-1.746-0.428-3.78-0.504-5.975         c-0.06-1.096-0.122-2.228-0.185-3.378c-0.031-0.575-0.063-1.155-0.095-1.737l-0.009-1.753         c0.014-2.34-0.068-4.683,0.024-6.875c0.103-2.192,0.199-4.238,0.281-5.992c0.119-1.751,0.298-3.204,0.386-4.225         c0.1-1.019,0.156-1.602,0.156-1.602" style="fill:#BF360C;stroke:#424242;stroke-width:5.6;stroke-miterlimit:10;"/></g><g><path d="M-143.511,228.091l35.177,6.031c0,0-0.292,1.982-0.585,3.964         c-0.341,1.976-0.497,3.976-0.497,3.976l-35.481-3.853c0,0,0.214-2.545,0.632-5.066         C-143.888,230.617-143.511,228.091-143.511,228.091z" style="fill:#BF360C;"/><path d="M-127.157,240.135         c0,0,0.057-0.583,0.156-1.602c0.101-1.019,0.352-2.462,0.598-4.2c0.262-1.736,0.523-3.769,0.997-5.913         c0.215-1.076,0.438-2.188,0.663-3.317c0.115-0.564,0.23-1.133,0.347-1.705l0.429-1.7c0.286-1.135,0.572-2.27,0.854-3.387         c0.273-1.12,0.554-2.218,0.895-3.262c0.644-2.098,1.244-4.056,1.759-5.734c1.188-3.304,1.98-5.507,1.98-5.507" style="fill:#BF360C;stroke:#424242;stroke-width:5.6;stroke-miterlimit:10;"/></g><g><path d="M-131.282,188.064l32.549,14.639c0,0-0.232,0.446-0.507,1.146         c-0.288,0.695-0.672,1.621-1.055,2.547c-0.387,0.925-0.773,1.851-1.063,2.544c-0.258,0.706-0.429,1.177-0.429,1.177         l-33.385-12.618c0,0,0.221-0.599,0.552-1.497c0.366-0.884,0.854-2.063,1.343-3.242c0.491-1.178,0.982-2.356,1.35-3.239         C-131.569,188.634-131.282,188.064-131.282,188.064z" style="fill:#BF360C;"/><path d="M-118.479,203.809         c0,0,0.181-0.557,0.562-1.507c0.393-0.946,0.955-2.297,1.628-3.918c0.342-0.808,0.692-1.693,1.099-2.613         c0.431-0.909,0.884-1.867,1.354-2.859s0.956-2.017,1.449-3.058c0.506-1.035,1.084-2.054,1.627-3.09         c0.551-1.033,1.103-2.065,1.646-3.081c0.539-1.019,1.158-1.971,1.709-2.919c1.143-1.873,2.131-3.67,3.141-5.109         c0.972-1.462,1.781-2.681,2.348-3.534c0.563-0.856,0.901-1.333,0.901-1.333" style="fill:#BF360C;stroke:#424242;stroke-width:5.6;stroke-miterlimit:10;"/></g><g><path d="M-109.49,152.392l27.915,22.238c0,0-1.3,1.533-2.453,3.178         c-1.191,1.617-2.382,3.234-2.382,3.234l-29.211-20.505c0,0,1.509-2.055,3.018-4.11         C-111.127,154.347-109.49,152.392-109.49,152.392z" style="fill:#BF360C;"/><path d="M-101.017,170.789         c0,0,1.387-1.886,3.467-4.714c2.152-2.771,5.067-6.441,8.243-9.883c1.525-1.778,3.201-3.415,4.734-4.984         c0.775-0.776,1.5-1.553,2.231-2.242c0.738-0.683,1.437-1.329,2.081-1.924c1.293-1.187,2.354-2.196,3.125-2.869         c0.784-0.659,1.232-1.035,1.232-1.035" style="fill:#BF360C;stroke:#424242;stroke-width:5.6;stroke-miterlimit:10;"/></g><g><path d="M-79.585,123.2l21.559,28.442c0,0-0.399,0.304-0.999,0.759         c-0.59,0.467-1.419,1.035-2.179,1.691c-1.537,1.292-3.073,2.583-3.073,2.583l-23.25-27.077c0,0,1.954-1.639,3.907-3.278         c0.971-0.827,2.015-1.563,2.766-2.155C-80.093,123.586-79.585,123.2-79.585,123.2z" style="fill:#BF360C;"/><path d="M-75.902,143.137         c0,0,0.448-0.376,1.232-1.035c0.792-0.648,1.887-1.622,3.267-2.706c1.397-1.063,3.027-2.303,4.773-3.632         c1.776-1.289,3.729-2.582,5.65-3.918c1.943-1.305,3.968-2.482,5.824-3.653c0.922-0.595,1.857-1.098,2.738-1.583         c0.88-0.487,1.712-0.947,2.48-1.372s1.472-0.814,2.097-1.159c0.639-0.316,1.196-0.591,1.656-0.818         c0.919-0.451,1.444-0.709,1.444-0.709" style="fill:#BF360C;stroke:#424242;stroke-width:5.6;stroke-miterlimit:10;"/></g><g><path d="M-43.34,102.309l13.781,32.922c0,0-1.841,0.792-3.681,1.583         c-0.924,0.388-1.804,0.873-2.484,1.191c-0.675,0.332-1.125,0.552-1.125,0.552l-15.782-32.01c0,0,0.573-0.281,1.433-0.703         c0.866-0.409,1.994-1.01,3.168-1.512C-45.685,103.32-43.34,102.309-43.34,102.309z" style="fill:#BF360C;"/><path d="M-44.74,122.552         c0,0,8.375-4.229,17.258-7.234c8.848-3.11,18.056-4.914,18.056-4.914" style="fill:#BF360C;stroke:#424242;stroke-width:5.6;stroke-miterlimit:10;"/></g><g><path d="M-3.011,91.153l5.114,35.321c0,0-1.982,0.311-3.965,0.622         c-0.997,0.128-1.97,0.374-2.708,0.521c-0.736,0.155-1.226,0.258-1.226,0.258l-7.262-34.943c0,0,0.625-0.13,1.562-0.326         c0.938-0.187,2.182-0.483,3.445-0.659C-5.531,91.551-3.011,91.153-3.011,91.153z" style="fill:#BF360C;"/><path d="M-9.426,110.404         c0,0,0.573-0.12,1.575-0.331c0.501-0.105,1.11-0.232,1.808-0.379c0.704-0.111,1.499-0.237,2.366-0.374         c1.736-0.255,3.752-0.631,5.93-0.893c2.183-0.23,4.51-0.477,6.838-0.723c2.337-0.128,4.675-0.255,6.866-0.375         c2.192-0.088,4.242-0.038,5.997-0.063c0.878-0.003,1.683-0.006,2.396-0.008c0.712,0.033,1.333,0.063,1.845,0.086         c1.023,0.048,1.607,0.075,1.607,0.075" style="fill:#BF360C;stroke:#424242;stroke-width:5.6;stroke-miterlimit:10;"/></g><g><path d="M38.785,90.361l-3.793,35.487c0,0-1.994-0.196-3.989-0.393         c-0.998-0.096-2.002-0.103-2.752-0.149c-0.751-0.035-1.251-0.058-1.251-0.058l1.606-35.653c0,0,0.638,0.03,1.594,0.075         c0.955,0.058,2.232,0.081,3.503,0.198C36.244,90.115,38.785,90.361,38.785,90.361z" style="fill:#BF360C;"/><path d="M27.802,107.422         c0,0,9.378,0.315,18.608,1.977c9.248,1.552,18.189,4.394,18.189,4.394" style="fill:#BF360C;stroke:#424242;stroke-width:5.6;stroke-miterlimit:10;"/></g><g><path d="M79.509,100.02l-12.562,33.405c0,0-1.886-0.678-3.772-1.357         c-0.935-0.364-1.901-0.632-2.62-0.853c-0.719-0.219-1.198-0.364-1.198-0.364l10.485-34.115c0,0,0.61,0.187,1.526,0.467         c0.915,0.284,2.142,0.637,3.336,1.089C77.106,99.156,79.509,100.02,79.509,100.02z" style="fill:#BF360C;"/><path d="M64.599,113.793         c0,0,0.56,0.171,1.539,0.47c0.489,0.151,1.083,0.334,1.765,0.544c0.671,0.241,1.428,0.514,2.254,0.811         c0.826,0.297,1.721,0.619,2.667,0.959c0.947,0.339,1.95,0.687,2.955,1.127c2.018,0.86,4.206,1.701,6.331,2.68         c2.11,1.013,4.244,1.979,6.202,2.969c1.936,1.034,3.742,1.999,5.291,2.826c1.536,0.85,2.771,1.637,3.656,2.15         c0.879,0.525,1.381,0.826,1.381,0.826" style="fill:#BF360C;stroke:#424242;stroke-width:5.6;stroke-miterlimit:10;"/></g><g><path d="M116.51,119.5l-20.457,29.245c0,0-1.673-1.109-3.347-2.219         c-0.842-0.547-1.658-1.134-2.309-1.512c-0.647-0.385-1.079-0.642-1.079-0.642l18.644-30.433c0,0,0.547,0.328,1.367,0.82         c0.824,0.486,1.868,1.219,2.937,1.915C114.388,118.086,116.51,119.5,116.51,119.5z" style="fill:#BF360C;"/><path d="M98.641,129.155         c0,0,0.502,0.3,1.381,0.825c0.87,0.541,2.076,1.369,3.542,2.335c0.731,0.486,1.523,1.012,2.361,1.568         c0.833,0.564,1.671,1.215,2.56,1.858c1.764,1.305,3.679,2.654,5.468,4.167c3.683,2.892,7.145,6.051,9.71,8.445         c2.504,2.461,4.173,4.103,4.173,4.103" style="fill:#BF360C;stroke:#424242;stroke-width:5.6;stroke-miterlimit:10;"/></g><g><path d="M147.493,147.545l-27.039,23.295c0,0-0.322-0.385-0.805-0.963         c-0.495-0.567-1.191-1.291-1.869-2.031c-0.681-0.737-1.362-1.475-1.873-2.028c-0.506-0.558-0.859-0.915-0.859-0.915         l25.575-24.894c0,0,0.447,0.454,1.094,1.159c0.649,0.702,1.516,1.637,2.381,2.573c0.861,0.94,1.738,1.866,2.367,2.586         C147.082,147.058,147.493,147.545,147.493,147.545z" style="fill:#BF360C;"/><path d="M127.837,152.456         c0,0,0.41,0.417,1.102,1.173c0.695,0.752,1.688,1.826,2.88,3.115c1.225,1.26,2.488,2.876,3.914,4.544         c0.695,0.849,1.458,1.69,2.152,2.609c0.698,0.917,1.406,1.849,2.115,2.78c0.701,0.937,1.434,1.851,2.098,2.792         c0.653,0.95,1.295,1.884,1.917,2.788s1.222,1.778,1.792,2.607c0.548,0.843,1.035,1.661,1.5,2.405         c0.923,1.493,1.692,2.737,2.231,3.608c0.527,0.878,0.794,1.399,0.794,1.399" style="fill:#BF360C;stroke:#424242;stroke-width:5.6;stroke-miterlimit:10;"/></g><g><path d="M170.602,182.404l-31.984,15.836c0,0-0.22-0.45-0.551-1.125         c-0.323-0.679-0.764-1.579-1.269-2.445c-0.97-1.754-1.939-3.509-1.939-3.509l30.95-17.771c0,0,1.235,2.234,2.471,4.468         c0.634,1.108,1.202,2.251,1.617,3.114C170.32,181.832,170.602,182.404,170.602,182.404z" style="fill:#BF360C;"/><path d="M150.333,182.275         c0,0,1.133,2.049,2.832,5.121c0.775,1.575,1.68,3.413,2.649,5.381c0.502,0.977,0.955,2.016,1.403,3.078         c0.456,1.058,0.919,2.133,1.382,3.208l0.694,1.61c0.206,0.545,0.41,1.089,0.613,1.627c0.403,1.08,0.799,2.142,1.183,3.17         c0.809,2.042,1.391,4.007,1.925,5.679c0.521,1.676,0.998,3.061,1.259,4.051c0.26,0.99,0.409,1.556,0.409,1.556" style="fill:#BF360C;stroke:#424242;stroke-width:5.6;stroke-miterlimit:10;"/></g><g><path d="M184.281,221.956l-34.931,7.32c0,0-0.103-0.491-0.256-1.227         c-0.17-0.732-0.319-1.727-0.597-2.691c-0.511-1.938-1.021-3.875-1.021-3.875l34.415-9.452c0,0,0.648,2.47,1.296,4.939         c0.343,1.23,0.551,2.492,0.766,3.424C184.15,221.332,184.281,221.956,184.281,221.956z" style="fill:#BF360C;"/><path d="M164.683,216.757         c0,0,0.149,0.566,0.409,1.557c0.249,0.993,0.658,2.399,1.054,4.109c0.36,1.718,0.781,3.723,1.231,5.871         c0.44,2.15,0.732,4.475,1.119,6.783l0.27,1.732c0.061,0.58,0.122,1.157,0.183,1.73c0.121,1.146,0.24,2.273,0.355,3.364         c0.273,2.179,0.36,4.226,0.453,5.979c0.094,1.753,0.172,3.214,0.227,4.236c0.004,1.024,0.006,1.609,0.006,1.609" style="fill:#BF360C;stroke:#424242;stroke-width:5.6;stroke-miterlimit:10;"/></g><g><path d="M187.688,263.613l-35.656-1.547c0,0,0.024-0.5,0.06-1.252         c0.039-0.751,0.101-1.752,0.071-2.756c-0.008-2.007-0.016-4.014-0.016-4.014l35.684-0.633c0,0,0.009,2.55,0.019,5.101         c0.026,1.276-0.043,2.55-0.088,3.506C187.718,262.975,187.688,263.613,187.688,263.613z" style="fill:#BF360C;"/><path d="M169.99,253.728         c0,0,0.009,2.341,0.022,5.852c-0.082,1.753-0.177,3.799-0.279,5.991c-0.028,0.548-0.056,1.105-0.085,1.669         c-0.055,0.562-0.11,1.131-0.166,1.704c-0.112,1.146-0.226,2.312-0.339,3.476c-0.173,2.336-0.605,4.641-0.905,6.814         c-0.173,1.083-0.291,2.139-0.491,3.125c-0.197,0.986-0.384,1.919-0.556,2.779c-0.35,1.72-0.618,3.159-0.844,4.158         c-0.25,0.993-0.394,1.561-0.394,1.561" style="fill:#BF360C;stroke:#424242;stroke-width:5.6;stroke-miterlimit:10;"/></g><g><path d="M180.616,304.861l-34.132-10.428c0,0,0.146-0.479,0.367-1.198         c0.203-0.723,0.553-1.666,0.77-2.645c0.489-1.943,0.978-3.886,0.978-3.886l34.709,8.305c0,0-0.625,2.477-1.25,4.953         c-0.288,1.245-0.714,2.451-0.976,3.372C180.802,304.25,180.616,304.861,180.616,304.861z" style="fill:#BF360C;"/><path d="M165.953,290.857         c0,0-0.143,0.567-0.393,1.56c-0.259,0.991-0.588,2.417-1.057,4.109c-0.513,1.679-1.111,3.638-1.751,5.737         c-0.663,2.091-1.513,4.275-2.287,6.483c-1.679,4.369-3.523,8.676-5.082,11.823c-0.744,1.59-1.374,2.911-1.879,3.803         c-0.482,0.903-0.758,1.419-0.758,1.419" style="fill:#BF360C;stroke:#424242;stroke-width:5.6;stroke-miterlimit:10;"/></g><g><path d="M163.475,343.01l-30.464-18.593c0,0,1.031-1.723,2.062-3.445         c0.506-0.866,0.951-1.767,1.313-2.426c0.354-0.664,0.59-1.106,0.59-1.106l31.54,16.704c0,0-0.301,0.563-0.751,1.406         c-0.459,0.839-1.035,1.978-1.676,3.08C164.781,340.82,163.475,343.01,163.475,343.01z" style="fill:#BF360C;"/><path d="M152.746,325.792         c0,0-4.306,8.336-9.744,15.976c-1.387,1.886-2.773,3.771-4.074,5.54c-1.382,1.704-2.673,3.295-3.779,4.658         c-1.085,1.381-2.121,2.42-2.785,3.2c-0.682,0.764-1.072,1.2-1.072,1.2" style="fill:#BF360C;stroke:#424242;stroke-width:5.6;stroke-miterlimit:10;"/></g><g><path d="M137.457,375.712l-24.936-25.534c0,0,1.407-1.433,2.814-2.866         c0.705-0.715,1.419-1.421,1.905-1.998c0.5-0.563,0.834-0.938,0.834-0.938l26.438,23.975c0,0-0.425,0.475-1.063,1.187         c-0.623,0.727-1.522,1.63-2.416,2.539C139.245,373.895,137.457,375.712,137.457,375.712z" style="fill:#BF360C;"/><path d="M131.292,356.365         c0,0-0.39,0.436-1.072,1.2c-0.659,0.786-1.726,1.79-2.944,3.054c-1.237,1.246-2.637,2.743-4.278,4.202         c-1.631,1.467-3.281,3.134-5.11,4.599c-0.896,0.753-1.792,1.505-2.675,2.246c-0.441,0.371-0.879,0.738-1.311,1.101         c-0.449,0.342-0.893,0.681-1.329,1.013c-1.752,1.321-3.364,2.586-4.786,3.615c-2.894,1.989-4.822,3.315-4.822,3.315" style="fill:#BF360C;stroke:#424242;stroke-width:5.6;stroke-miterlimit:10;"/></g><g><path d="M104.124,400.959l-17.823-30.921c0,0,0.11-0.06,0.302-0.166         c0.192-0.106,0.47-0.25,0.786-0.456c0.639-0.396,1.491-0.925,2.343-1.454c0.854-0.526,1.707-1.053,2.347-1.447         c0.324-0.191,0.582-0.37,0.761-0.496c0.181-0.125,0.284-0.196,0.284-0.196l19.684,29.771c0,0-0.131,0.09-0.362,0.248         c-0.229,0.16-0.558,0.385-0.968,0.631c-0.813,0.504-1.898,1.177-2.982,1.849c-1.086,0.67-2.172,1.34-2.987,1.842         c-0.404,0.257-0.756,0.444-1,0.581C104.263,400.881,104.124,400.959,104.124,400.959z" style="fill:#BF360C;"/><path d="M102.965,380.709         c0,0-0.121,0.083-0.347,0.238c-0.223,0.161-0.559,0.381-0.998,0.645c-0.871,0.539-2.115,1.308-3.608,2.231         c-0.752,0.451-1.542,0.985-2.424,1.467c-0.88,0.487-1.809,1-2.769,1.531c-0.96,0.531-1.953,1.08-2.961,1.637         c-1.033,0.509-2.083,1.027-3.132,1.544c-1.051,0.516-2.102,1.031-3.136,1.539c-1.041,0.495-2.095,0.916-3.098,1.358         c-2.022,0.852-3.877,1.727-5.539,2.298c-1.645,0.614-3.016,1.125-3.975,1.483c-0.959,0.357-1.51,0.556-1.51,0.556" style="fill:#BF360C;stroke:#424242;stroke-width:5.6;stroke-miterlimit:10;"/></g><g><path d="M65.508,417.105l-9.509-34.399c0,0,0.485-0.126,1.212-0.316         c0.728-0.188,1.673-0.524,2.63-0.818c1.911-0.604,3.821-1.208,3.821-1.208l11.611,33.748c0,0-2.434,0.775-4.867,1.55         c-1.22,0.376-2.43,0.79-3.355,1.035C66.125,416.941,65.508,417.105,65.508,417.105z" style="fill:#BF360C;"/><path d="M69.468,397.238         c0,0-2.231,0.708-5.578,1.771c-0.418,0.132-0.854,0.271-1.305,0.414c-0.458,0.121-0.931,0.246-1.417,0.374         c-0.973,0.256-1.999,0.525-3.06,0.805c-1.064,0.267-2.151,0.593-3.278,0.834c-1.128,0.236-2.273,0.477-3.419,0.717         s-2.291,0.48-3.418,0.716c-1.138,0.179-2.258,0.355-3.342,0.526c-2.169,0.33-4.186,0.701-5.938,0.841         c-3.492,0.369-5.819,0.615-5.819,0.615" style="fill:#BF360C;stroke:#424242;stroke-width:5.6;stroke-miterlimit:10;"/></g></g></g></g></g><g><path d="M256.033,69.726c49.683,0,96.391,19.347,131.522,54.478s54.478,81.839,54.478,131.522     s-19.347,96.391-54.478,131.522s-81.839,54.478-131.522,54.478s-96.391-19.347-131.522-54.478s-54.478-81.839-54.478-131.522     s19.347-96.391,54.478-131.522S206.35,69.726,256.033,69.726 M256.033,55.726c-110.457,0-200,89.543-200,200s89.543,200,200,200     s200-89.543,200-200S366.49,55.726,256.033,55.726L256.033,55.726z" style="fill:#424242;"/></g></g></g><g id="Layer_1"/></svg>